<svg id="map_driver" xmlns="http://www.w3.org/2000/svg" xmlns:xlink="http://www.w3.org/1999/xlink" width="24" height="66" viewBox="0 0 24 66">
  <defs>
    <clipPath id="clip-path">
      <circle id="Ellipse_21" data-name="Ellipse 21" cx="4.2" cy="4.2" r="4.2"/>
    </clipPath>
  </defs>
  <rect id="Map_Driver-2" data-name="Map_Driver" width="24" height="66" fill="none"/>
  <g id="Map_driver-3" data-name="Map_driver" transform="translate(1.372)">
    <path id="Path_682" data-name="Path 682" d="M25.124,12.243l.081-4.672a1.543,1.543,0,1,1,3.086.054L28.209,12.3a10.588,10.588,0,0,1,.8,1.673,10.534,10.534,0,0,1,1.512.727c-.015.088-.026.171-.035.25a8.8,8.8,0,0,1,1.566.2.171.171,0,0,1,.112.216l-.1.324,1.04.485c.345-.289.736-.541.949-.494a1.449,1.449,0,0,1,.763,1.292l.3.14a.169.169,0,0,1,.082.224l-.181.389a.175.175,0,0,1-.233.085l-.254-.118-.1.192c.926,2.505,2.433,6.417,2.493,7.638.065,1.338-.956,4.334-2,6.3l-.006-.005q-.352.613-.678,1.2a.579.579,0,0,1-.059.153c-.351.634-.818,1.558-1.277,2.364l-.214.413A3.514,3.514,0,0,1,32.6,37.02c-.361,1.1-1.1,3.722-2.1,4.918a17.545,17.545,0,0,0-.161,1.951,4.114,4.114,0,0,1,3.285,4.1c-.017.994-.036,2.086-.055,3.18A7.37,7.37,0,0,1,32.6,54.7a3.86,3.86,0,0,1,1.368,3.018l-.146,8.378a3.869,3.869,0,0,1-3.934,3.8L21.5,69.745a3.869,3.869,0,0,1-3.8-3.934l.146-8.378a3.861,3.861,0,0,1,1.472-2.969,7.371,7.371,0,0,1-.844-3.555c.019-1.094.038-2.186.056-3.18a4.114,4.114,0,0,1,3.427-3.986,18.328,18.328,0,0,0-.1-2.091,18.5,18.5,0,0,1-1.826-4.85,3.263,3.263,0,0,1-.057-.977L19.2,34.247c-.216-.4-.409-.762-.536-1.045a1.354,1.354,0,0,1-.051-.129q-.383-.758-.8-1.559l-.006.005c-.974-2-1.89-5.03-1.778-6.365.1-1.225,1.763-5.117,2.774-7.586l-.093-.192-.341.145a.175.175,0,0,1-.23-.093l-.168-.4a.169.169,0,0,1,.089-.221l.405-.171a1.449,1.449,0,0,1,.807-1.219c.208-.038.571.208.9.5l1.047-.444-.086-.3a.171.171,0,0,1,.12-.213,8.328,8.328,0,0,1,1.509-.141c-.006-.081-.015-.166-.027-.256a10.536,10.536,0,0,1,1.537-.673,10.583,10.583,0,0,1,.861-1.644Zm-3.53,3.906-.855.363q.027.034.048.064c.189.269-.058.73-.017.986l-.032,0,.01.008a33.23,33.23,0,0,1-1.186,7.421,9.143,9.143,0,0,0,.5,1.624c.218.531.411,1.27.66,1.807a9.942,9.942,0,0,1,1.073-.694c-1-2.889-1.424-8.206-.167-9.715A3.8,3.8,0,0,1,23.647,17a1.016,1.016,0,0,0-.086-.056,9.3,9.3,0,0,0-1.968-.8Zm10.031.186a9.207,9.207,0,0,0-1.954.718l-.053.031a3.9,3.9,0,0,1,2.068,1.107c1.208,1.561.578,6.913-.542,9.753a10,10,0,0,1,.964.679c.266-.527.486-1.26.722-1.783a9.135,9.135,0,0,0,.557-1.606,33.227,33.227,0,0,1-.926-7.457l.015-.012c.05-.255-.181-.723.017-.986l.023-.03Z" transform="translate(-14.64 -5.017)" fill="rgba(0,0,0,0.25)" fill-rule="evenodd"/>
    <g id="Group_1023" data-name="Group 1023">
      <g id="Motor" transform="translate(1.791)">
        <path id="Path_683" data-name="Path 683" d="M62.886,1.543a1.543,1.543,0,1,0-3.086,0V17.314a1.543,1.543,0,1,0,3.086,0Z" transform="translate(-52.711)" fill="#282f35" fill-rule="evenodd"/>
        <path id="Path_684" data-name="Path 684" d="M52.431,31.962c.043-.96,2.866-.96,2.909,0a12.735,12.735,0,0,1,1.631,4.118c.01.365-.389.763-.785,1.032a9.419,9.419,0,0,1-2.3.218,9.419,9.419,0,0,1-2.3-.218c-.394-.269-.794-.667-.785-1.032a12.735,12.735,0,0,1,1.631-4.118Z" transform="translate(-45.254 -25.886)" fill="#dcdddd" fill-rule="evenodd"/>
        <path id="Path_685" data-name="Path 685" d="M50.061,41.837a14.091,14.091,0,0,1,3.789,1.36c-.053.336-.044.591-.1.927-1.354-.147-2.461-.215-3.8-.358-1.342.143-2.449.211-3.8.358-.051-.336-.043-.591-.1-.927a14.093,14.093,0,0,1,3.789-1.36v-.05l.111.025.111-.025v.05Z" transform="translate(-41.318 -34.624)" fill="#dcdddd" fill-rule="evenodd"/>
        <path id="Path_686" data-name="Path 686" d="M59.437,43.334a9.194,9.194,0,0,1,2,.535c-.028.132-.023.232-.051.365-.714-.058-1.3-.085-2.006-.141-.708.056-1.291.083-2.006.141-.027-.132-.023-.232-.051-.365a9.2,9.2,0,0,1,2-.535v-.02l.059.01.059-.01v.02Z" transform="translate(-50.657 -35.889)" fill="#f0f0f0" fill-rule="evenodd"/>
        <path id="Path_687" data-name="Path 687" d="M37.614,74.7c-1.493-1.861-2.577-9.305-1.08-11.166s8.565-1.861,10.058,0,.4,9.305-1.1,11.166-6.385,1.861-7.878,0Z" transform="translate(-32.84 -51.486)" fill="#68717a" fill-rule="evenodd"/>
        <path id="Path_688" data-name="Path 688" d="M37.707,51.47l-.359-.722Z" transform="translate(-34.108 -42.048)" fill="none" fill-rule="evenodd"/>
        <path id="Path_689" data-name="Path 689" d="M23.659,56.311l2.706-1.353" transform="translate(-22.766 -45.537)" fill="none" fill-rule="evenodd"/>
        <path id="Path_690" data-name="Path 690" d="M40.073,224a4.114,4.114,0,0,0-4.114-4.114H29.1A4.114,4.114,0,0,0,24.987,224v3.181a7.371,7.371,0,0,0,7.371,7.371H32.7a7.371,7.371,0,0,0,7.371-7.371Z" transform="translate(-23.866 -182.192)" fill="#eeefef" fill-rule="evenodd"/>
        <rect id="Rectangle_675" data-name="Rectangle 675" width="0.686" height="2.743" transform="translate(6.092 46.411)" fill="#212121"/>
        <rect id="Rectangle_676" data-name="Rectangle 676" width="0.686" height="2.743" transform="translate(10.549 46.411)" fill="#212121"/>
        <g id="Group_1014" data-name="Group 1014" transform="translate(0 8.4)">
          <path id="Path_691" data-name="Path 691" d="M22.248,54.011l-3.7,1.646a.169.169,0,0,0-.086.223l.175.392a.175.175,0,0,0,.231.089l3.693-1.643Z" transform="translate(-18.449 -53.152)" fill="#68717a" fill-rule="evenodd"/>
          <path id="Path_692" data-name="Path 692" d="M95.467,54.011l3.7,1.646a.169.169,0,0,1,.086.223l-.175.392a.175.175,0,0,1-.231.089l-3.693-1.643Z" transform="translate(-82.004 -53.152)" fill="#68717a" fill-rule="evenodd"/>
          <g id="Group_1013" data-name="Group 1013" transform="translate(3.135)">
            <path id="Path_693" data-name="Path 693" d="M42.264,49a.455.455,0,0,1,.064,0,15.344,15.344,0,0,1,2.991.334c.687.141,1.627.074,2.35.262a.171.171,0,0,1,.116.214c-.069.231-.195.642-.25.824a.171.171,0,0,1-.119.115,9.574,9.574,0,0,0-2.1.8c-.48.268-.552.812-.988.89a16.29,16.29,0,0,1-2,.3.308.308,0,0,0-.128,0,16.29,16.29,0,0,1-2-.3c-.436-.078-.509-.622-.988-.89a9.564,9.564,0,0,0-2.1-.8.171.171,0,0,1-.119-.116l-.25-.824a.171.171,0,0,1,.116-.215c.724-.189,1.663-.12,2.351-.262A15.343,15.343,0,0,1,42.2,49,.458.458,0,0,1,42.264,49Z" transform="translate(-36.735 -49)" fill="#eeefef" fill-rule="evenodd"/>
            <path id="Path_694" data-name="Path 694" d="M58.6,53.3c.689,0,1.819-.077,2.068.237s-.165,1.412-.512,1.736a2.539,2.539,0,0,1-1.556.287,2.538,2.538,0,0,1-1.556-.287c-.346-.324-.773-1.407-.512-1.736S57.913,53.3,58.6,53.3Z" transform="translate(-53.073 -52.557)" fill="#c9c9ca" fill-rule="evenodd"/>
          </g>
        </g>
        <path id="Path_695" data-name="Path 695" d="M37.768,173H48.492s-1.333,6.041-1.172,8.513c.137,2.119.963,5.4.477,6.823-.358,1.046-1.136,1.4-2.222,1.684a24.37,24.37,0,0,1-4.892,0c-1.085-.281-1.934-.639-2.292-1.684-.486-1.418.39-4.7.528-6.823.161-2.469-1.151-8.5-1.152-8.513Z" transform="translate(-34.456 -143.343)" fill="#b5b5b6" fill-rule="evenodd"/>
        <path id="Path_696" data-name="Path 696" d="M38.1,281.867A3.869,3.869,0,0,0,34.234,278H25.854a3.869,3.869,0,0,0-3.867,3.867v8.379a3.869,3.869,0,0,0,3.867,3.867h8.379a3.869,3.869,0,0,0,3.867-3.867Z" transform="translate(-21.38 -230.343)" fill="#e60013" fill-rule="evenodd"/>
      </g>
      <g id="Driver" transform="translate(0 9.488)">
        <path id="Path_697" data-name="Path 697" d="M104.759,57.672l-1.888-.2c.045-.255-.193-.72,0-.986.257-.353,1.162-1.207,1.539-1.13a1.4,1.4,0,0,1,.722,1.587l-.373.734" transform="translate(-86.544 -55.346)" fill="#fec9a3" fill-rule="evenodd"/>
        <path id="Path_698" data-name="Path 698" d="M21.817,57.672l1.888-.2c-.045-.255.193-.72,0-.986-.257-.353-1.162-1.207-1.539-1.13a1.4,1.4,0,0,0-.722,1.587l.373.734" transform="translate(-19.087 -55.346)" fill="#fec9a3" fill-rule="evenodd"/>
        <g id="Celana" transform="translate(4.138 19.55)">
          <path id="Path_699" data-name="Path 699" d="M44.788,169.389a5.884,5.884,0,0,1,0,1.82c-.355,1.151-1.084,3.943-2.129,5.086a5.848,5.848,0,0,1-4.143,1.774l-.011-.013-.011.013a5.848,5.848,0,0,1-4.143-1.774c-1.046-1.143-1.774-3.935-2.129-5.086a5.861,5.861,0,0,1,0-1.82Z" transform="translate(-32.142 -169.389)" fill="#374355" fill-rule="evenodd"/>
        </g>
        <g id="Jaket" transform="translate(0 1.768)">
          <path id="Jaket1" d="M18.627,74.871a9.664,9.664,0,0,1,5.524,2c.257-.531.464-1.269.691-1.8a9.14,9.14,0,0,0,.529-1.615,33.224,33.224,0,0,1-1.056-7.44,1.47,1.47,0,0,1,1.94,0c.966,2.486,2.571,6.431,2.652,7.661.088,1.337-.88,4.35-1.889,6.333l-.006-.005c-2.412,4.379-3.823,7.876-5.657,9.649a5.975,5.975,0,0,1-2.728.69v.022l-.169-.01-.169.01v-.023a5.97,5.97,0,0,1-2.728-.69c-1.834-1.774-3.245-5.27-5.657-9.649l-.006.005c-1.009-1.983-1.977-5-1.889-6.333.081-1.231,1.686-5.176,2.652-7.661a1.47,1.47,0,0,1,1.94,0,33.258,33.258,0,0,1-1.056,7.44,9.126,9.126,0,0,0,.529,1.615c.227.527.434,1.263.691,1.8a9.664,9.664,0,0,1,5.524-2v-.014l.169.006.169-.006Z" transform="translate(-8.003 -65.658)" fill="#e60013" fill-rule="evenodd"/>
          <path id="lengan" d="M10.747,73.685a7.768,7.768,0,0,0,.949,3.248.181.181,0,0,1-.151.26l-.8.05a10.97,10.97,0,0,1-.754-3.558c.062-1.135,1.659-5.176,2.625-7.661.04-.028.109-.236.146-.252a.747.747,0,0,1,.4-.112c.058-.008-.052.215-.055.228C12.521,68.814,10.962,71.8,10.747,73.685Z" transform="translate(-9.648 -65.659)" fill="#fff" fill-rule="evenodd"/>
          <path id="lengan1" d="M112.334,73.762a7.77,7.77,0,0,1-.949,3.248.18.18,0,0,0,.151.26l.8.05a10.965,10.965,0,0,0,.754-3.558c-.062-1.135-1.659-5.176-2.625-7.661-.023-.059-.04-.178-.067-.19-.259-.116-.327-.174-.467-.156a1.064,1.064,0,0,0,.045.209c.586,2.927,2.146,5.916,2.36,7.8Z" transform="translate(-92.455 -65.736)" fill="#fff" fill-rule="evenodd"/>
          <path id="Path_700" data-name="Path 700" d="M37.91,143.5c.446-.814.9-1.745,1.236-2.386.308-.579-.44-1.47-1.721-1.937-4.259-1.856-7.859-1.98-12.636.087-1.232.649-1.472,1.481-1.156,2.154.238.507.7,1.257,1.121,2.082,1.85,3.675,3.11,5.65,3.779,5.971a6.887,6.887,0,0,0,5.425.111c.711-.262,2.067-2.254,3.95-6.082Z" transform="translate(-20.85 -125.387)" fill="#fff" fill-rule="evenodd"/>
          <g id="Group_1015" data-name="Group 1015" transform="translate(9.685 15.142)">
            <path id="Path_701" data-name="Path 701" d="M66.944,156.179h.3v.3h-.3v.3h-.3v-.3h-.3v-.3h.3v-.3h.3v.3" transform="translate(-66.023 -155.552)" fill="#e20a16"/>
            <path id="Path_702" data-name="Path 702" d="M64.72,154.958a.567.567,0,1,1,.886-.644.567.567,0,1,1-.338,1.041.339.339,0,0,1-.548-.4Zm-.179-.414a.44.44,0,0,1,.15.636.307.307,0,0,0,.127.217.444.444,0,0,1,.652.051.312.312,0,0,0,.245-.051.305.305,0,0,0,.049-.456.309.309,0,1,0-.19-.585v-.032a.309.309,0,1,0-.617,0c0,.011,0,.021,0,.032a.305.305,0,0,0-.419.187" transform="translate(-64.497 -153.983)" fill="#e20a16"/>
            <path id="Path_703" data-name="Path 703" d="M65.977,165.3H66.1v-.6h-.122Zm-.817-.6v.6h.112v-.483l.109.483h.095l.107-.483,0,.483H65.7v-.6h-.18l-.087.427-.088-.427Zm-.574,0v.6h.122v-.241h.065a.264.264,0,0,0,.079-.011.157.157,0,0,0,.06-.033.143.143,0,0,0,.039-.057.21.21,0,0,0,.014-.081.257.257,0,0,0-.009-.066.154.154,0,0,0-.028-.058.136.136,0,0,0-.051-.041.172.172,0,0,0-.078-.016Zm.122.274v-.184h.051a.08.08,0,0,1,.065.024.105.105,0,0,1,.02.07.091.091,0,0,1-.023.069.079.079,0,0,1-.058.022h-.054" transform="translate(-64.571 -162.863)" fill-rule="evenodd"/>
          </g>
          <g id="Group_1018" data-name="Group 1018" transform="translate(7.796 20.48)">
            <g id="Group_1016" data-name="Group 1016">
              <path id="Path_704" data-name="Path 704" d="M60.89,185.126h.16a.316.316,0,0,1,.083.008.147.147,0,0,1,.065.04.191.191,0,0,1,.041.07.322.322,0,0,1,.014.1.284.284,0,0,1-.013.092.192.192,0,0,1-.046.077.156.156,0,0,1-.062.034.269.269,0,0,1-.077.009H60.89Zm.088.073v.287h.065a.239.239,0,0,0,.053,0,.082.082,0,0,0,.035-.017.093.093,0,0,0,.023-.042.285.285,0,0,0,.009-.079.262.262,0,0,0-.009-.077.1.1,0,0,0-.025-.042.083.083,0,0,0-.041-.02.4.4,0,0,0-.072,0h-.039Z" transform="translate(-59.62 -185.126)" fill="#e61d25"/>
              <path id="Path_705" data-name="Path 705" d="M63.415,185.561v-.434h.322v.073H63.5v.1h.218v.073H63.5v.118h.242v.073Z" transform="translate(-61.712 -185.127)" fill="#e61d25"/>
              <path id="Path_706" data-name="Path 706" d="M65.757,185.578v-.43h.088v.357h.218v.073Z" transform="translate(-63.653 -185.144)" fill="#e61d25"/>
              <rect id="Rectangle_677" data-name="Rectangle 677" width="0.088" height="0.434" transform="translate(2.464 0)" fill="#e61d25"/>
              <path id="Path_707" data-name="Path 707" d="M68.726,185.561l-.154-.434h.095l.11.321.106-.321h.093l-.155.434h-.093Z" transform="translate(-65.985 -185.127)" fill="#e61d25"/>
              <path id="Path_708" data-name="Path 708" d="M71.156,185.561v-.434h.321v.073h-.234v.1h.218v.073h-.218v.118h.242v.073Z" transform="translate(-68.126 -185.127)" fill="#e61d25"/>
              <path id="Path_709" data-name="Path 709" d="M73.486,185.559v-.434h.184a.319.319,0,0,1,.1.012.1.1,0,0,1,.05.042.126.126,0,0,1,.019.069.116.116,0,0,1-.029.081.137.137,0,0,1-.086.04.2.2,0,0,1,.047.036.491.491,0,0,1,.05.07l.053.085h-.1l-.063-.094a.6.6,0,0,0-.046-.064.067.067,0,0,0-.026-.017.145.145,0,0,0-.044,0h-.017v.181h-.087Zm.088-.25h.065a.343.343,0,0,0,.079-.005.047.047,0,0,0,.025-.018.056.056,0,0,0,.009-.033.051.051,0,0,0-.012-.035.054.054,0,0,0-.033-.017h-.132Z" transform="translate(-70.057 -185.125)" fill="#e61d25"/>
              <path id="Path_710" data-name="Path 710" d="M75.773,185.561v-.182l-.159-.251h.1l.1.171.1-.171h.1l-.159.252v.182Z" transform="translate(-71.82 -185.127)" fill="#e61d25"/>
              <path id="Path_711" data-name="Path 711" d="M53.887,188.533h.185v.583a.6.6,0,0,1-.02.176.248.248,0,0,1-.1.129.324.324,0,0,1-.187.049.278.278,0,0,1-.21-.076.312.312,0,0,1-.074-.224l.175-.02a.242.242,0,0,0,.023.112.1.1,0,0,0,.092.05.1.1,0,0,0,.088-.035.279.279,0,0,0,.026-.147Z" transform="translate(-53.483 -187.949)" fill="#e61d25"/>
              <path id="Path_712" data-name="Path 712" d="M57.907,189.45v-.921h.683v.156h-.5v.2h.463v.154h-.463v.252h.514v.154Z" transform="translate(-57.149 -187.945)" fill="#e61d25"/>
              <path id="Path_713" data-name="Path 713" d="M62.756,189.45v-.921h.186v.409l.376-.409h.25l-.347.359.366.562h-.24l-.253-.432-.151.154v.278Z" transform="translate(-61.166 -187.945)" fill="#e61d25"/>
              <path id="Path_714" data-name="Path 714" d="M69.3,188.531h.34a.669.669,0,0,1,.175.017.309.309,0,0,1,.139.085.406.406,0,0,1,.088.149.681.681,0,0,1,.03.218.6.6,0,0,1-.028.2.407.407,0,0,1-.1.163.326.326,0,0,1-.131.074.558.558,0,0,1-.164.02H69.3v-.921Zm.186.156v.61h.139a.5.5,0,0,0,.112-.009.17.17,0,0,0,.075-.038.2.2,0,0,0,.049-.089.6.6,0,0,0,.019-.169.552.552,0,0,0-.019-.164.21.21,0,0,0-.053-.089.176.176,0,0,0-.086-.043.844.844,0,0,0-.153-.009h-.084Z" transform="translate(-66.588 -187.947)" fill="#e61d25"/>
              <path id="Path_715" data-name="Path 715" d="M74.325,188.921a.584.584,0,0,1,.042-.236.434.434,0,0,1,.086-.126.358.358,0,0,1,.119-.083.505.505,0,0,1,.2-.036.432.432,0,0,1,.326.126.564.564,0,0,1,0,.7.484.484,0,0,1-.651,0A.476.476,0,0,1,74.325,188.921Zm.192-.006a.345.345,0,0,0,.072.237.235.235,0,0,0,.183.081.233.233,0,0,0,.182-.08.352.352,0,0,0,.071-.24.346.346,0,0,0-.069-.236.257.257,0,0,0-.37,0,.348.348,0,0,0-.071.238Z" transform="translate(-70.752 -187.87)" fill="#e61d25"/>
              <path id="Path_716" data-name="Path 716" d="M80.226,189.45v-.921h.181l.377.615v-.615h.173v.921H80.77l-.371-.6v.6Z" transform="translate(-75.641 -187.945)" fill="#e61d25"/>
            </g>
            <g id="Group_1017" data-name="Group 1017" transform="translate(0.265 2.414)">
              <path id="Path_717" data-name="Path 717" d="M55.351,199.461a.168.168,0,0,1-.01.06.118.118,0,0,1-.029.045.125.125,0,0,1-.047.028.2.2,0,0,1-.064.01.206.206,0,0,1-.062-.009.121.121,0,0,1-.046-.026.114.114,0,0,1-.029-.043.171.171,0,0,1-.01-.061v-.221a.009.009,0,0,1,0-.005l.006,0,.011,0h.034l.011,0,.006,0a.008.008,0,0,1,0,.005v.214a.116.116,0,0,0,.005.037.066.066,0,0,0,.015.026.064.064,0,0,0,.024.016.089.089,0,0,0,.031.005.084.084,0,0,0,.031-.005.061.061,0,0,0,.023-.016.07.07,0,0,0,.015-.025.105.105,0,0,0,.005-.034v-.219a.009.009,0,0,1,0-.005l.006,0,.011,0h.034l.011,0,.006,0a.009.009,0,0,1,0,.005v.218Z" transform="translate(-55.051 -199.226)" fill="#e61d25"/>
              <path id="Path_718" data-name="Path 718" d="M57.543,199.581a.027.027,0,0,1,0,.011.026.026,0,0,1-.006.009l-.009,0-.011,0h-.031l-.017,0a.035.035,0,0,1-.013-.007.062.062,0,0,1-.012-.014l-.013-.023-.09-.17-.016-.033-.015-.034h0c0,.013,0,.027,0,.04s0,.027,0,.042v.19a.009.009,0,0,1,0,.005l-.005,0-.01,0a.161.161,0,0,1-.033,0l-.01,0,0,0a.009.009,0,0,1,0-.005v-.326a.025.025,0,0,1,.008-.02.028.028,0,0,1,.019-.007h.04l.017,0a.037.037,0,0,1,.013.006.043.043,0,0,1,.011.011.144.144,0,0,1,.01.019l.071.133.012.024.012.023.011.023.01.022h0c0-.013,0-.027,0-.041s0-.028,0-.041v-.17a.009.009,0,0,1,0-.005l.006,0,.01,0h.033l.01,0,0,0a.009.009,0,0,1,0,.005Z" transform="translate(-56.864 -199.236)" fill="#e61d25"/>
              <path id="Path_719" data-name="Path 719" d="M59.533,199.586a.008.008,0,0,1,0,0l-.006,0-.011,0h-.034l-.011,0-.006,0a.007.007,0,0,1,0,0v-.343a.008.008,0,0,1,0-.005l.006,0,.011,0h.034l.011,0,.006,0a.008.008,0,0,1,0,.005Z" transform="translate(-58.701 -199.226)" fill="#e61d25"/>
              <path id="Path_720" data-name="Path 720" d="M60.416,199.278v.014a.033.033,0,0,1,0,.009.012.012,0,0,1,0,.005l0,0h-.091v.292a.008.008,0,0,1,0,0l-.006,0-.011,0h-.034l-.011,0-.006,0a.007.007,0,0,1,0,0v-.291h-.093l0,0,0-.005a.042.042,0,0,1,0-.009.107.107,0,0,1,0-.014.113.113,0,0,1,0-.014.047.047,0,0,1,0-.009l0,0,0,0H60.4l0,0,0,0a.037.037,0,0,1,0,.009v.014Z" transform="translate(-59.263 -199.241)" fill="#e61d25"/>
              <path id="Path_721" data-name="Path 721" d="M63.063,199.43a.247.247,0,0,1-.013.086.143.143,0,0,1-.037.058.148.148,0,0,1-.059.033.3.3,0,0,1-.083.01h-.087a.023.023,0,0,1-.015-.005.022.022,0,0,1-.006-.017v-.316a.022.022,0,0,1,.006-.017.022.022,0,0,1,.015-.005h.093a.263.263,0,0,1,.082.011.151.151,0,0,1,.057.034.145.145,0,0,1,.035.055.218.218,0,0,1,.012.076Zm-.076,0a.178.178,0,0,0-.006-.048.1.1,0,0,0-.019-.038.088.088,0,0,0-.034-.025.141.141,0,0,0-.055-.009h-.037v.247h.039a.147.147,0,0,0,.051-.008.087.087,0,0,0,.034-.024.1.1,0,0,0,.021-.039.2.2,0,0,0,.007-.055Z" transform="translate(-61.436 -199.247)" fill="#e61d25"/>
              <path id="Path_722" data-name="Path 722" d="M65.117,199.389a.267.267,0,0,1-.011.081.165.165,0,0,1-.033.061.141.141,0,0,1-.055.038.2.2,0,0,1-.075.013.224.224,0,0,1-.074-.011.128.128,0,0,1-.052-.034.143.143,0,0,1-.032-.058.291.291,0,0,1-.011-.083.258.258,0,0,1,.011-.079.16.16,0,0,1,.033-.06.146.146,0,0,1,.055-.038.2.2,0,0,1,.076-.013.219.219,0,0,1,.073.011.129.129,0,0,1,.053.034.148.148,0,0,1,.032.057.277.277,0,0,1,.011.082Zm-.077,0a.285.285,0,0,0,0-.051.114.114,0,0,0-.015-.04.072.072,0,0,0-.029-.026.1.1,0,0,0-.045-.009.091.091,0,0,0-.045.01.084.084,0,0,0-.029.027.114.114,0,0,0-.016.04.244.244,0,0,0,0,.048.3.3,0,0,0,0,.053.114.114,0,0,0,.015.04.069.069,0,0,0,.029.026.1.1,0,0,0,.045.009.094.094,0,0,0,.045-.01.081.081,0,0,0,.029-.028.114.114,0,0,0,.016-.04.252.252,0,0,0,0-.049Z" transform="translate(-63.103 -199.205)" fill="#e61d25"/>
              <path id="Path_723" data-name="Path 723" d="M67.431,199.581a.03.03,0,0,1,0,.011.029.029,0,0,1-.006.009l-.009,0-.01,0h-.031l-.017,0a.034.034,0,0,1-.013-.007.058.058,0,0,1-.012-.014l-.013-.023-.09-.17-.016-.033c-.005-.012-.01-.023-.015-.034h0c0,.013,0,.027,0,.04s0,.027,0,.042v.19a.009.009,0,0,1,0,.005l-.005,0-.01,0h-.034l-.01,0-.005,0a.01.01,0,0,1,0-.005v-.326a.025.025,0,0,1,.008-.02.029.029,0,0,1,.019-.007H67.2l.018,0a.038.038,0,0,1,.013.006.05.05,0,0,1,.011.011.145.145,0,0,1,.01.019l.071.133.012.024.012.023.011.023.01.022h0c0-.013,0-.027,0-.041s0-.028,0-.041v-.17a.008.008,0,0,1,0-.005l.006,0,.01,0h.033l.01,0,0,0a.01.01,0,0,1,0,.005Z" transform="translate(-65.055 -199.236)" fill="#e61d25"/>
              <path id="Path_724" data-name="Path 724" d="M69.59,199.389a.267.267,0,0,1-.011.081.162.162,0,0,1-.033.061.144.144,0,0,1-.055.038.2.2,0,0,1-.076.013.222.222,0,0,1-.074-.011.128.128,0,0,1-.053-.034.146.146,0,0,1-.032-.058.291.291,0,0,1-.011-.083.258.258,0,0,1,.011-.079.161.161,0,0,1,.033-.06.144.144,0,0,1,.055-.038.2.2,0,0,1,.076-.013.22.22,0,0,1,.073.011.129.129,0,0,1,.053.034.146.146,0,0,1,.032.057.277.277,0,0,1,.011.082Zm-.077,0a.284.284,0,0,0,0-.051.111.111,0,0,0-.015-.04.072.072,0,0,0-.029-.026.1.1,0,0,0-.045-.009.091.091,0,0,0-.045.01.084.084,0,0,0-.029.027.114.114,0,0,0-.016.04.243.243,0,0,0,0,.048.3.3,0,0,0,0,.053.114.114,0,0,0,.015.04.069.069,0,0,0,.028.026.1.1,0,0,0,.045.009.093.093,0,0,0,.045-.01.083.083,0,0,0,.029-.028.116.116,0,0,0,.016-.04.252.252,0,0,0,0-.049Z" transform="translate(-66.81 -199.205)" fill="#e61d25"/>
              <path id="Path_725" data-name="Path 725" d="M71.888,199.6a.011.011,0,0,1,0,.005l-.005,0-.012,0h-.041l-.011,0-.006,0,0-.006-.033-.081-.011-.024a.072.072,0,0,0-.013-.017.043.043,0,0,0-.016-.011.051.051,0,0,0-.021,0h-.023v.138a.008.008,0,0,1,0,0l-.006,0-.011,0h-.034l-.011,0-.006,0a.008.008,0,0,1,0,0v-.329a.021.021,0,0,1,.022-.023h.135a.159.159,0,0,1,.039.011.094.094,0,0,1,.03.02.082.082,0,0,1,.019.029.107.107,0,0,1,.006.038.111.111,0,0,1,0,.033.084.084,0,0,1-.014.027.09.09,0,0,1-.022.02.121.121,0,0,1-.03.014l.015.01a.071.071,0,0,1,.013.014.123.123,0,0,1,.012.018.248.248,0,0,1,.011.023l.031.072.006.016a.033.033,0,0,1,0,.008Zm-.1-.246a.054.054,0,0,0-.008-.03.044.044,0,0,0-.027-.017l-.013,0h-.053v.1h.038a.089.089,0,0,0,.027,0,.056.056,0,0,0,.02-.011.045.045,0,0,0,.012-.017.053.053,0,0,0,0-.021Z" transform="translate(-68.776 -199.242)" fill="#e61d25"/>
              <path id="Path_726" data-name="Path 726" d="M74.558,199.427a.247.247,0,0,1-.013.086.145.145,0,0,1-.037.058.148.148,0,0,1-.059.033.3.3,0,0,1-.083.01h-.087a.023.023,0,0,1-.016-.005.023.023,0,0,1-.006-.017v-.316a.021.021,0,0,1,.022-.023h.093a.26.26,0,0,1,.082.011.15.15,0,0,1,.057.034.145.145,0,0,1,.035.055.218.218,0,0,1,.012.076Zm-.076,0a.179.179,0,0,0-.006-.048.1.1,0,0,0-.019-.038.09.09,0,0,0-.034-.025.141.141,0,0,0-.055-.009h-.037v.247h.038a.147.147,0,0,0,.051-.008.087.087,0,0,0,.034-.024.1.1,0,0,0,.021-.039.2.2,0,0,0,.007-.055Z" transform="translate(-70.96 -199.244)" fill="#e61d25"/>
              <path id="Path_727" data-name="Path 727" d="M76.431,199.568a.081.081,0,0,1,0,.016.009.009,0,0,1,0,.009.017.017,0,0,1-.011,0h-.044l-.012,0-.006,0,0-.006-.024-.073H76.2l-.023.071,0,.007-.006,0-.011,0h-.04a.015.015,0,0,1-.01,0,.011.011,0,0,1,0-.009.076.076,0,0,1,0-.016l.112-.322,0-.008.007,0,.014,0h.049l.015,0a.014.014,0,0,1,.008,0,.026.026,0,0,1,0,.008l.112.322Zm-.166-.266h0l-.051.154h.1Z" transform="translate(-72.489 -199.226)" fill="#e61d25"/>
              <path id="Path_728" data-name="Path 728" d="M78.59,199.6a.013.013,0,0,1,0,.005l-.005,0-.012,0H78.53l-.011,0-.006,0,0-.006-.032-.081c0-.009-.008-.017-.012-.024a.073.073,0,0,0-.012-.017.046.046,0,0,0-.016-.011.052.052,0,0,0-.021,0h-.023v.138a.008.008,0,0,1,0,0l-.006,0-.011,0a.19.19,0,0,1-.036,0l-.011,0-.006,0a.008.008,0,0,1,0,0v-.329a.02.02,0,0,1,.022-.023h.135a.157.157,0,0,1,.039.011.094.094,0,0,1,.03.02.08.08,0,0,1,.019.029.107.107,0,0,1,.007.038.111.111,0,0,1,0,.033.086.086,0,0,1-.014.027.09.09,0,0,1-.022.02.121.121,0,0,1-.03.014l.015.01a.078.078,0,0,1,.014.014.137.137,0,0,1,.012.018.252.252,0,0,1,.011.023l.031.072.006.016a.026.026,0,0,1,0,.008Zm-.095-.246a.054.054,0,0,0-.008-.03.043.043,0,0,0-.027-.017l-.013,0h-.053v.1h.038a.09.09,0,0,0,.028,0,.055.055,0,0,0,.02-.011.043.043,0,0,0,.012-.017.056.056,0,0,0,0-.021Z" transform="translate(-74.328 -199.242)" fill="#e61d25"/>
              <path id="Path_729" data-name="Path 729" d="M80.348,199.568a.081.081,0,0,1,0,.016.009.009,0,0,1,0,.009.017.017,0,0,1-.011,0H80.3l-.012,0-.006,0,0-.006-.024-.073h-.136l-.023.071,0,.007-.006,0-.011,0h-.04a.015.015,0,0,1-.01,0,.011.011,0,0,1,0-.009.076.076,0,0,1,0-.016l.112-.322,0-.008.007,0,.014,0h.049l.015,0a.014.014,0,0,1,.008,0,.026.026,0,0,1,0,.008l.112.322Zm-.166-.266h0l-.051.154h.1Z" transform="translate(-75.735 -199.226)" fill="#e61d25"/>
              <path id="Path_730" data-name="Path 730" d="M82.531,199.586a.007.007,0,0,1,0,0l-.006,0-.011,0h-.035l-.011,0-.006,0a.007.007,0,0,1,0,0v-.147h-.136v.147a.007.007,0,0,1,0,0l-.006,0-.011,0h-.034l-.011,0-.006,0a.007.007,0,0,1,0,0v-.343a.008.008,0,0,1,0-.005l.006,0,.011,0H82.3l.011,0,.006,0a.008.008,0,0,1,0,.005v.133h.136v-.133a.008.008,0,0,1,0-.005l.006,0,.011,0h.035l.011,0,.006,0a.007.007,0,0,1,0,.005Z" transform="translate(-77.584 -199.226)" fill="#e61d25"/>
              <path id="Path_731" data-name="Path 731" d="M55.262,202.641a.152.152,0,0,1-.009.054.1.1,0,0,1-.026.04.11.11,0,0,1-.042.025.178.178,0,0,1-.058.008H55.1v.116a.008.008,0,0,1,0,.005l-.005,0-.01,0h-.034l-.01,0-.005,0a.009.009,0,0,1,0-.005v-.326a.027.027,0,0,1,.006-.02.023.023,0,0,1,.017-.007h.1l.026,0a.11.11,0,0,1,.031.012.088.088,0,0,1,.026.022.094.094,0,0,1,.017.031.131.131,0,0,1,.006.04Zm-.072.005a.07.07,0,0,0-.006-.031.045.045,0,0,0-.035-.026l-.021,0H55.1v.123h.031a.069.069,0,0,0,.027,0,.047.047,0,0,0,.018-.013.06.06,0,0,0,.011-.021A.089.089,0,0,0,55.191,202.647Z" transform="translate(-55.03 -201.961)" fill="#e61d25"/>
              <path id="Path_732" data-name="Path 732" d="M57.09,202.881a.009.009,0,0,1,0,.005l-.005,0-.01,0a.143.143,0,0,1-.032,0l-.01,0-.005,0a.009.009,0,0,1,0-.005v-.3h0l-.1.3a.013.013,0,0,1,0,.006l-.006,0-.01,0h-.03l-.01,0-.006,0,0-.005-.094-.3h0v.3a.009.009,0,0,1,0,.005l-.005,0-.01,0h-.031l-.01,0-.005,0a.011.011,0,0,1,0-.005v-.323a.031.031,0,0,1,.007-.022.025.025,0,0,1,.019-.008h.045l.021,0a.038.038,0,0,1,.015.007.037.037,0,0,1,.01.013.1.1,0,0,1,.007.02l.073.216h0l.076-.216a.124.124,0,0,1,.007-.02.045.045,0,0,1,.009-.013A.029.029,0,0,1,57,202.53l.017,0h.046l.012,0a.021.021,0,0,1,.008.006.03.03,0,0,1,0,.009.045.045,0,0,1,0,.013v.323Z" transform="translate(-56.413 -201.958)" fill="#e61d25"/>
              <path id="Path_733" data-name="Path 733" d="M59.482,202.872a.008.008,0,0,1,0,.005l-.005,0-.01,0a.162.162,0,0,1-.033,0l-.01,0-.006,0a.008.008,0,0,1,0-.005v-.343a.008.008,0,0,1,0-.005l.006,0,.011,0h.034l.01,0,.005,0a.008.008,0,0,1,0,.005Z" transform="translate(-58.662 -201.949)" fill="#e61d25"/>
              <path id="Path_734" data-name="Path 734" d="M61.191,202.872a.011.011,0,0,1,0,.005l-.005,0-.011,0h-.041a.023.023,0,0,1-.011,0,.019.019,0,0,1-.005-.007l-.1-.172v.172a.009.009,0,0,1,0,.005l-.005,0-.01,0h-.034l-.01,0-.006,0a.009.009,0,0,1,0-.005v-.342a.009.009,0,0,1,0-.005l.006,0,.01,0H61l.01,0,.005,0a.009.009,0,0,1,0,.005v.154l.1-.154,0-.006.007,0,.011,0h.034l.011,0,.006,0a.009.009,0,0,1,0,0,.024.024,0,0,1,0,.01l-.009.016-.092.13.1.164.007.015a.019.019,0,0,1,0,.006Z" transform="translate(-59.93 -201.95)" fill="#e61d25"/>
              <path id="Path_735" data-name="Path 735" d="M62.779,202.854a.106.106,0,0,1,0,.016.009.009,0,0,1,0,.009.015.015,0,0,1-.01,0H62.73l-.011,0-.005,0,0-.006-.023-.073h-.127l-.021.071a.022.022,0,0,1,0,.007l-.005,0-.011,0h-.037a.013.013,0,0,1-.009,0,.012.012,0,0,1,0-.009.132.132,0,0,1,0-.016l.1-.322,0-.008a.013.013,0,0,1,.007,0l.013,0h.046l.014,0a.014.014,0,0,1,.007,0,.026.026,0,0,1,0,.008l.1.322Zm-.154-.266h0l-.048.154h.1Z" transform="translate(-61.197 -201.949)" fill="#e61d25"/>
              <path id="Path_736" data-name="Path 736" d="M64.779,202.788a.118.118,0,0,1,0,.035.1.1,0,0,1-.014.028.091.091,0,0,1-.021.021.12.12,0,0,1-.027.014.15.15,0,0,1-.031.008.223.223,0,0,1-.037,0h-.089a.021.021,0,0,1-.015-.005.023.023,0,0,1-.006-.017v-.316a.023.023,0,0,1,.006-.017.02.02,0,0,1,.015-.005h.085a.209.209,0,0,1,.053.006.1.1,0,0,1,.036.017.074.074,0,0,1,.022.029.1.1,0,0,1,.008.041.09.09,0,0,1,0,.025.073.073,0,0,1-.009.021.07.07,0,0,1-.034.029.082.082,0,0,1,.026.01.074.074,0,0,1,.021.017.09.09,0,0,1,.014.026.1.1,0,0,1,.005.034Zm-.089-.153a.058.058,0,0,0,0-.02.035.035,0,0,0-.009-.014.04.04,0,0,0-.016-.009.084.084,0,0,0-.025,0H64.6v.094h.038a.061.061,0,0,0,.024,0,.039.039,0,0,0,.015-.01.04.04,0,0,0,.009-.015.055.055,0,0,0,0-.019Zm.017.156a.062.062,0,0,0,0-.023.041.041,0,0,0-.011-.017.052.052,0,0,0-.019-.01.107.107,0,0,0-.031,0H64.6v.1h.05a.075.075,0,0,0,.024,0,.048.048,0,0,0,.017-.009.042.042,0,0,0,.011-.016.053.053,0,0,0,0-.021Z" transform="translate(-62.905 -201.965)" fill="#e61d25"/>
              <path id="Path_737" data-name="Path 737" d="M66.331,204.2a.053.053,0,0,1-.008.035.056.056,0,0,1-.061,0,.05.05,0,0,1-.008-.034.053.053,0,0,1,.009-.035.056.056,0,0,1,.061,0,.051.051,0,0,1,.008.034Z" transform="translate(-64.329 -203.308)" fill="#e61d25"/>
              <path id="Path_738" data-name="Path 738" d="M67.884,202.558v.014a.047.047,0,0,1,0,.009l0,.005,0,0H67.79v.292a.008.008,0,0,1,0,.005l-.006,0-.01,0a.16.16,0,0,1-.033,0l-.011,0-.005,0a.008.008,0,0,1,0-.005v-.292h-.084l0,0,0-.005a.048.048,0,0,1,0-.009v-.028a.048.048,0,0,1,0-.009l0,0,0,0h.237l0,0,0,0a.047.047,0,0,1,0,.009Z" transform="translate(-65.468 -201.958)" fill="#e61d25"/>
              <path id="Path_739" data-name="Path 739" d="M69.22,202.857a.088.088,0,0,1,0,.016.01.01,0,0,1,0,.009.016.016,0,0,1-.01,0h-.041l-.011,0-.005,0,0-.006-.023-.073H69l-.021.071,0,.007-.005,0-.011,0a.219.219,0,0,1-.037,0,.013.013,0,0,1-.009,0,.011.011,0,0,1,0-.009.1.1,0,0,1,0-.016l.1-.322,0-.008a.013.013,0,0,1,.007,0l.013,0h.046l.014,0a.014.014,0,0,1,.007,0l0,.008Zm-.154-.266h0l-.048.154h.1Z" transform="translate(-66.533 -201.952)" fill="#e61d25"/>
              <path id="Path_740" data-name="Path 740" d="M71.257,202.862a.031.031,0,0,1,0,.012.024.024,0,0,1-.006.008l-.008,0-.01,0H71.2l-.016,0a.032.032,0,0,1-.012-.007.057.057,0,0,1-.011-.014l-.012-.023-.084-.17-.015-.033c0-.012-.01-.023-.014-.034h0c0,.013,0,.027,0,.04s0,.027,0,.041v.19a.009.009,0,0,1,0,.005l0,0-.009,0h-.031l-.009,0,0,0a.01.01,0,0,1,0-.005v-.326a.023.023,0,0,1,.025-.026h.037l.017,0a.034.034,0,0,1,.012.006.043.043,0,0,1,.01.012.137.137,0,0,1,.01.018l.066.133.011.024.011.023.01.023.01.022h0c0-.013,0-.027,0-.041s0-.028,0-.041v-.17a.009.009,0,0,1,0-.005l.005,0,.01,0h.03l.009,0,0,0a.011.011,0,0,1,0,.005v.326Z" transform="translate(-68.245 -201.956)" fill="#e61d25"/>
              <path id="Path_741" data-name="Path 741" d="M73.214,202.553v.014a.044.044,0,0,1,0,.009.01.01,0,0,1,0,0h0a.025.025,0,0,1-.011,0l-.02-.011-.03-.011a.143.143,0,0,0-.04,0,.1.1,0,0,0-.044.009.094.094,0,0,0-.034.026.119.119,0,0,0-.022.04.17.17,0,0,0-.008.051.177.177,0,0,0,.008.055.112.112,0,0,0,.022.04.086.086,0,0,0,.033.024.109.109,0,0,0,.043.008l.023,0a.079.079,0,0,0,.021-.008v-.084h-.064s-.006,0-.007-.006a.064.064,0,0,1,0-.022.1.1,0,0,1,0-.013.03.03,0,0,1,0-.008l0,0,0,0H73.2l.007,0,.006,0a.02.02,0,0,1,0,.007.034.034,0,0,1,0,.01v.145a.036.036,0,0,1,0,.015.02.02,0,0,1-.011.01l-.021.008-.026.007-.027,0H73.1a.2.2,0,0,1-.072-.012.145.145,0,0,1-.054-.036.16.16,0,0,1-.034-.058.262.262,0,0,1,0-.157.174.174,0,0,1,.035-.06.151.151,0,0,1,.055-.038.186.186,0,0,1,.072-.013.216.216,0,0,1,.04,0l.031.008.022.01.012.009a.023.023,0,0,1,0,.011.1.1,0,0,1,0,.021Z" transform="translate(-69.858 -201.927)" fill="#e61d25"/>
              <path id="Path_742" data-name="Path 742" d="M75.211,202.868a.1.1,0,0,1,0,.014.034.034,0,0,1,0,.009l0,0,0,0h-.17a.021.021,0,0,1-.014-.005.023.023,0,0,1-.006-.017v-.316a.023.023,0,0,1,.006-.017.02.02,0,0,1,.014-.005H75.2a.01.01,0,0,1,0,0,.034.034,0,0,1,0,.009.1.1,0,0,1,0,.014.1.1,0,0,1,0,.013.034.034,0,0,1,0,.009l0,0,0,0h-.12v.089h.1l0,0,0,0a.031.031,0,0,1,0,.009.1.1,0,0,1,0,.013.1.1,0,0,1,0,.014.034.034,0,0,1,0,.009l0,0h-.105v.1H75.2l0,0,0,0a.034.034,0,0,1,0,.009A.1.1,0,0,1,75.211,202.868Z" transform="translate(-71.586 -201.965)" fill="#e61d25"/>
              <path id="Path_743" data-name="Path 743" d="M76.78,202.888a.013.013,0,0,1,0,.005l0,0-.011,0h-.038l-.01,0-.005,0,0-.006-.03-.081-.011-.024a.08.08,0,0,0-.012-.017.041.041,0,0,0-.015-.011.048.048,0,0,0-.019,0H76.6v.138a.008.008,0,0,1,0,.005l-.005,0-.01,0a.164.164,0,0,1-.033,0l-.01,0-.005,0a.009.009,0,0,1,0-.005v-.329a.023.023,0,0,1,.006-.017.02.02,0,0,1,.014-.005h.125a.135.135,0,0,1,.037.011.086.086,0,0,1,.028.02.082.082,0,0,1,.017.029.111.111,0,0,1,.006.038.12.12,0,0,1,0,.033.087.087,0,0,1-.013.027.089.089,0,0,1-.021.02.11.11,0,0,1-.028.014l.014.01a.074.074,0,0,1,.013.014.132.132,0,0,1,.011.018.25.25,0,0,1,.01.023l.028.072.005.015a.031.031,0,0,1,0,.008Zm-.088-.246a.058.058,0,0,0-.008-.03.04.04,0,0,0-.025-.017l-.012,0H76.6v.1h.034a.078.078,0,0,0,.026,0,.05.05,0,0,0,.018-.011.045.045,0,0,0,.011-.017.06.06,0,0,0,0-.021Z" transform="translate(-72.844 -201.965)" fill="#e61d25"/>
              <path id="Path_744" data-name="Path 744" d="M78.412,202.857a.108.108,0,0,1,0,.016.01.01,0,0,1,0,.009.016.016,0,0,1-.01,0h-.041l-.011,0-.005,0,0-.006-.023-.073h-.127l-.021.071a.021.021,0,0,1,0,.007l-.005,0-.011,0a.219.219,0,0,1-.037,0,.014.014,0,0,1-.009,0,.012.012,0,0,1,0-.009.088.088,0,0,1,0-.016l.1-.322,0-.008a.013.013,0,0,1,.007,0l.013,0h.046l.014,0a.013.013,0,0,1,.007,0,.026.026,0,0,1,0,.008l.1.322Zm-.154-.266h0l-.048.154h.1Z" transform="translate(-74.15 -201.952)" fill="#e61d25"/>
              <path id="Path_745" data-name="Path 745" d="M80.444,202.862a.028.028,0,0,1,0,.012.027.027,0,0,1-.005.008l-.008,0-.01,0h-.029l-.016,0a.03.03,0,0,1-.012-.007.057.057,0,0,1-.011-.014c0-.006-.007-.014-.012-.023l-.084-.17-.015-.033c-.005-.012-.009-.023-.014-.034h0q0,.02,0,.04v.231a.009.009,0,0,1,0,.005l0,0-.009,0h-.031l-.009,0,0,0a.011.011,0,0,1,0-.005v-.326a.024.024,0,0,1,.025-.026h.037l.017,0a.034.034,0,0,1,.012.006.043.043,0,0,1,.01.012.135.135,0,0,1,.01.018l.065.133.011.024.011.023.01.023.01.022h0c0-.013,0-.027,0-.041s0-.028,0-.041v-.17a.009.009,0,0,1,0-.005l.005,0,.01,0h.03l.009,0,0,0a.01.01,0,0,1,0,.005v.326Z" transform="translate(-75.857 -201.956)" fill="#e61d25"/>
              <path id="Path_746" data-name="Path 746" d="M82.395,202.553v.014a.046.046,0,0,1,0,.009.011.011,0,0,1,0,0h0a.026.026,0,0,1-.011,0l-.02-.011-.03-.011a.143.143,0,0,0-.04,0,.1.1,0,0,0-.044.009.1.1,0,0,0-.034.026.122.122,0,0,0-.022.04.17.17,0,0,0-.008.051.177.177,0,0,0,.008.055.115.115,0,0,0,.021.04.087.087,0,0,0,.033.024.109.109,0,0,0,.043.008l.023,0a.079.079,0,0,0,.021-.008v-.084h-.064s-.006,0-.007-.006a.064.064,0,0,1,0-.022.1.1,0,0,1,0-.013.031.031,0,0,1,0-.008l0,0,0,0h.114l.007,0,.006,0a.02.02,0,0,1,0,.007.035.035,0,0,1,0,.01v.145a.036.036,0,0,1,0,.015.02.02,0,0,1-.011.01l-.021.008-.026.007-.027,0h-.027a.2.2,0,0,1-.072-.013.144.144,0,0,1-.054-.036.16.16,0,0,1-.034-.058.262.262,0,0,1,0-.157.171.171,0,0,1,.035-.06.154.154,0,0,1,.055-.038.189.189,0,0,1,.072-.013.22.22,0,0,1,.04,0l.031.008.022.01.012.009a.024.024,0,0,1,0,.011.108.108,0,0,1,0,.021Z" transform="translate(-77.464 -201.927)" fill="#e61d25"/>
            </g>
          </g>
          <g id="Logo-1" transform="translate(8.019 18.402)">
            <rect id="Rectangle_678" data-name="Rectangle 678" width="4.871" height="2.152" fill="none"/>
            <g id="Group_1019" data-name="Group 1019" transform="translate(0.375 0.181)">
              <path id="Path_747" data-name="Path 747" d="M61.615,176.495l-.625.167-.112-.415.625-.167Z" transform="translate(-60.208 -175.733)" fill="#e61d25" fill-rule="evenodd"/>
              <path id="Path_748" data-name="Path 748" d="M69.042,184.02h2.051l-1.969-.079a.219.219,0,0,1-.083.077" transform="translate(-66.972 -182.248)" fill="#737373"/>
              <path id="Path_749" data-name="Path 749" d="M61.447,183.209a.171.171,0,0,0-.158.106.111.111,0,0,0-.163.056.087.087,0,0,0-.046-.013.088.088,0,0,0-.071.036l-.246.033h.943c-.118-.061-.115-.208-.259-.218" transform="translate(-60.113 -181.64)" fill="#737373"/>
              <path id="Path_750" data-name="Path 750" d="M61.708,183.456a.034.034,0,1,1-.034-.034.034.034,0,0,1,.034.034" transform="translate(-60.838 -181.816)" fill="#737373"/>
              <path id="Path_751" data-name="Path 751" d="M62.742,182.586a.05.05,0,1,1-.015-.035.05.05,0,0,1,.015.035" transform="translate(-61.669 -181.082)" fill="#737373"/>
              <path id="Path_752" data-name="Path 752" d="M60.116,182.738a.05.05,0,1,1-.015-.035.05.05,0,0,1,.015.035" transform="translate(-59.493 -181.208)" fill="#737373"/>
              <path id="Path_753" data-name="Path 753" d="M66.083,181.735a.21.21,0,0,1,.034.154.213.213,0,0,1-.42-.07.207.207,0,0,1,.008-.031l-.133.019a.338.338,0,1,0,.644-.091l-.133.019Z" transform="translate(-64.094 -180.402)" fill="#e61d25"/>
              <path id="Path_754" data-name="Path 754" d="M70.963,175.034l.124-.115-.051-.055-.124.115a.027.027,0,0,0,0,.038l.015.016a.027.027,0,0,0,.038,0" transform="translate(-68.514 -174.725)" fill="#e61d25"/>
              <path id="Path_755" data-name="Path 755" d="M72.725,174.073l-.024.142.142.024c.041.007.024-.046.016-.066a.243.243,0,0,0-.068-.1c-.017-.015-.06-.041-.067,0" transform="translate(-70.003 -174.054)" fill="#e61d25"/>
              <path id="Path_756" data-name="Path 756" d="M70.035,174.37l-.34-.1a.012.012,0,0,0-.014.02l.146.171a.013.013,0,0,0,.022-.011l-.018-.087.192.051.012-.045Z" transform="translate(-67.499 -174.233)" fill="#e61d25"/>
              <path id="Path_757" data-name="Path 757" d="M67.213,182.107a.091.091,0,1,0-.037.059.091.091,0,0,0,.037-.059" transform="translate(-65.307 -180.638)" fill="#e61d25"/>
              <path id="Path_758" data-name="Path 758" d="M77.028,179.927a.091.091,0,1,0-.1.074.091.091,0,0,0,.1-.074" transform="translate(-73.439 -178.832)" fill="#e61d25"/>
              <path id="Path_759" data-name="Path 759" d="M74.852,178.025l.625-.512a.021.021,0,0,0-.006-.036.505.505,0,0,0-.1-.027.512.512,0,0,0-.438.134Z" transform="translate(-71.786 -176.862)" fill="#e61d25"/>
              <path id="Path_760" data-name="Path 760" d="M65.533,177.583l.56.081.333-.161a.031.031,0,0,0,0-.053.589.589,0,0,0-.411-.075.989.989,0,0,0-.486.208" transform="translate(-64.064 -176.797)" fill="#e61d25"/>
              <path id="Path_761" data-name="Path 761" d="M61.757,179.065a.031.031,0,0,1-.009-.061l.575-.165a.031.031,0,0,1,.014,0l.224.04a.031.031,0,0,1-.011.062l-.217-.039-.568.163h-.009" transform="translate(-60.91 -178.018)" fill="#e61d25"/>
              <path id="Path_762" data-name="Path 762" d="M65.657,179.894a.384.384,0,0,0-.441.313.377.377,0,0,0,0,.048l.745-.107a.385.385,0,0,0-.3-.254" transform="translate(-63.797 -178.889)" fill="#e61d25"/>
              <path id="Path_763" data-name="Path 763" d="M65.116,175.571a.43.43,0,0,0-.84.121l-.076.011a.053.053,0,0,1-.06-.056.567.567,0,0,1,.3-.45.161.161,0,0,1,.1-.02l.406.057.343-.17-.051.225a.169.169,0,0,0,.011.107l.036.08a.116.116,0,0,0,.129.066l.335-.069a.116.116,0,0,0,.09-.09l.055-.262a.116.116,0,0,0-.025-.1l-.465-.544.1-.093a.043.043,0,0,1,.062,0l.566.66-.107.507a.124.124,0,0,1-.1.1l-.613.118a.137.137,0,0,1-.147-.07l-.051-.128Z" transform="translate(-62.909 -174.319)" fill="#e61d25"/>
              <path id="Path_764" data-name="Path 764" d="M58.32,177.833l.417-.088-.022-.072Z" transform="translate(-58.088 -177.053)" fill="#e61d25"/>
              <path id="Path_765" data-name="Path 765" d="M56.965,178.359l.684-.139-.034-.11Z" transform="translate(-56.965 -177.416)" fill="#e61d25"/>
              <path id="Path_766" data-name="Path 766" d="M58.679,178.925l.413-.087-.022-.071Z" transform="translate(-58.385 -177.958)" fill="#e61d25"/>
              <path id="Path_767" data-name="Path 767" d="M75.9,178.568l-.126.1a.2.2,0,0,1,.043,0,.212.212,0,1,1-.245.174.069.069,0,0,1,0-.013l-.127.1a.338.338,0,1,0,.453-.372" transform="translate(-72.278 -177.793)" fill="#e61d25"/>
              <path id="Path_768" data-name="Path 768" d="M62.5,176.619c.09.12-.09.141-.049.3a.13.13,0,0,0,.249-.033c.02-.1-.089-.2-.2-.267" transform="translate(-61.505 -176.179)" fill="#fff" fill-rule="evenodd"/>
              <path id="Path_769" data-name="Path 769" d="M62.57,176.764c.058.1-.095.13-.061.268a.12.12,0,0,0,.23-.031c.013-.076-.064-.17-.169-.237" transform="translate(-61.555 -176.299)" fill="#e61d25" fill-rule="evenodd"/>
              <path id="Path_770" data-name="Path 770" d="M62.756,177.027c.008.032-.017.066-.036.1,0,0-.009,0-.016,0,.017-.034.051-.06.052-.1" transform="translate(-61.72 -176.517)" fill="#fff" fill-rule="evenodd"/>
              <path id="Path_771" data-name="Path 771" d="M62.675,177.946a.037.037,0,1,1-.018.022.037.037,0,0,1,.018-.022" transform="translate(-61.68 -177.275)" fill="#fff" fill-rule="evenodd"/>
              <path id="Path_772" data-name="Path 772" d="M63.15,177.878a.037.037,0,1,1-.018.022.037.037,0,0,1,.018-.022" transform="translate(-62.074 -177.219)" fill="#fff" fill-rule="evenodd"/>
              <path id="Path_773" data-name="Path 773" d="M62.8,178.043l.01,0a.011.011,0,1,0,.018.012.02.02,0,1,1-.028-.01" transform="translate(-61.795 -177.357)" fill="#241813" fill-rule="evenodd"/>
              <path id="Path_774" data-name="Path 774" d="M63.28,177.971l.01,0a.011.011,0,0,0,0,.012.011.011,0,0,0,.015,0l0,0a.02.02,0,1,1-.028-.009" transform="translate(-62.188 -177.298)" fill="#241813" fill-rule="evenodd"/>
              <path id="Path_775" data-name="Path 775" d="M62.653,177.849c.014-.038.043-.04.054-.013-.021-.017-.034-.011-.054.013" transform="translate(-61.678 -177.173)" fill="#241813" fill-rule="evenodd"/>
              <path id="Path_776" data-name="Path 776" d="M63.237,177.772c-.03-.04-.06-.029-.065,0,.021-.028.044-.014.065,0" transform="translate(-62.108 -177.113)" fill="#241813" fill-rule="evenodd"/>
              <path id="Path_777" data-name="Path 777" d="M63.611,177.528a.137.137,0,0,1,.023.123.207.207,0,0,0-.023-.123" transform="translate(-62.472 -176.932)" fill="#fff" fill-rule="evenodd"/>
              <path id="Path_778" data-name="Path 778" d="M62.257,177.09h.007l0,0,0,0h0l.006-.01.006,0-.006.01a.021.021,0,0,0,0,.005.025.025,0,0,0,0,.01h-.007a.043.043,0,0,1,0-.013v0l0,0-.006,0h0l0,0Zm0-.034.005,0a.006.006,0,0,0,0,0v0l.007,0v0a.006.006,0,0,1,0,0v0h-.005l-.007,0,0,0a0,0,0,0,0,0,0v0h.006v0h0l0,0,0,0v-.005l0,0,0,0,0,0v0a.01.01,0,0,0,0,0Zm0,.01,0,0h0a0,0,0,0,0,0,0,0,0,0,0,0,0,0h0l0,0Zm-.013-.027,0,0v0l-.007,0a.007.007,0,0,0,0,0,0,0,0,0,0,0,0h0l0,0,0,0,0,0,0,0,0,0,0,0h0a0,0,0,0,0,0,0l0,0,0,0h-.008a0,0,0,0,1,0,0,.012.012,0,0,1,0,0v0l0,0,0,0h0Zm-.022-.011,0,0,0,0h.005l0,0a.007.007,0,0,1,0,0h0a0,0,0,0,0,0,0,.008.008,0,0,0,0,0v0a.005.005,0,0,1,0,0l0,0h0l0,0,0,0v0a.014.014,0,0,1,0,0l0,0H62.24a0,0,0,0,1,0,0h0a.009.009,0,0,1,0,0l0,0h-.006l0,0a.009.009,0,0,1,0,0,.006.006,0,0,1,0,0l0,0,0,0Zm.007,0,0,0a0,0,0,0,0,0,0,.008.008,0,0,0,0,0h0l0,0a.006.006,0,0,0,0,0h0Zm.013-.009a0,0,0,0,0,0,0,.011.011,0,0,0,0,0s0,0,0,0v0h0v0a.006.006,0,0,0,0,0,0,0,0,0,0,0,0l0,0h0Zm-.021-.05,0,.006-.019.009h.018l0,0h0l0,0-.006,0-.007,0h.021v0H62.2l0,0h0l0,0,.011-.007-.016,0h0l0-.005.009,0,.015-.008Zm0-.022,0,.005h0l0,0v0a0,0,0,0,1,0,0l0,0h-.014l0-.005h.013l0,0H62.2v-.005h.016Zm0-.021v.005h0v.005a.01.01,0,0,1,0,0l-.005,0,0,0,0,0a.006.006,0,0,1,0,0,.018.018,0,0,1,0,0H62.2v-.006h.026Zm-.014,0h0a.008.008,0,0,0,0,0v0l0,0h.008v0h-.011Zm.018-.024v.006h0a.017.017,0,0,1,0,.007v0h0l0,0,0,0a.034.034,0,0,1,0-.008h0v0a0,0,0,0,0,0,0l0,0,0,0a.015.015,0,0,1,0,0,.013.013,0,0,1,0,0v0l0,0h.014Zm-.009,0a.013.013,0,0,0,0,0h.005a0,0,0,0,0,0,0v0h0Zm0-.052a.009.009,0,0,0,0,0l0,0s0,0,0,0l0,0,0,0,.01,0,0,.006-.011-.005H62.22l-.01,0v-.007l.012,0h0l0,0,0-.006v0l0,0Zm.031,0v.006h0a.023.023,0,0,1,0,.007h-.006l0,0v0l0-.008,0,0h0a0,0,0,0,0,0,0v0h0a.014.014,0,0,1,0,0l0,0,0,0,0,0h0l0,0,0,0h0Zm-.01,0v0a.005.005,0,0,0,0,0v0h0a.008.008,0,0,0,0,0,.011.011,0,0,0,0,0l0,0Zm.022-.019,0,.006h0l-.006,0h0s0,0,0,0a.01.01,0,0,0,0,0l0,0,0,0,0,0,0,0,0,0,0,0h0l0-.006,0,0a.022.022,0,0,0,0-.005,0,0,0,0,1,0,0h.009l0,0h.005Zm0-.025v0h0l0,0v0l0,.005h0l0,0,0,0h0a0,0,0,0,1,0,0,.021.021,0,0,1,0,0l0,0,0,0,0,0h0a0,0,0,0,1,0,0,.023.023,0,0,1,0,0h0s0,0,0,0a.014.014,0,0,1,0,0l0,0h0l0,0v0l0-.006,0,0h0a.007.007,0,0,1,0,0h0Zm0,.008h-.006l0,0h0l0,0h0v0l0,0Zm.014.007h0l0,0h0v0h0l0,0a0,0,0,0,0,0,0v0Zm.008-.048,0,0,0,.005v.005a.011.011,0,0,1,0,.007l0,0,0,0v0l-.017-.011h0l0-.006,0-.008a.016.016,0,0,1,.01-.005h.005Zm0,.006h-.007l0,0,0,0v0a0,0,0,0,0,0,0h0l.013.007,0,0,0,0a.006.006,0,0,0,0-.009l0,0Zm.011-.021h0l0,0,0,.009,0,0,0,0h0l0,0,0,0v-.007l0,0,0,0Zm0,.005h-.005l0,0v0h0l.006,0h0l0,0,0,0h0l0,0Zm.006-.024,0,.005h-.013a0,0,0,0,0,0,0h0l0,0h.01l0,.005h-.016l0-.005,0,0,0,0s0,0,0,0a0,0,0,0,1,0,0l0,0H62.3Zm-.017-.016h.007l.007.005a.008.008,0,0,1,0,0,.011.011,0,0,1,0,0l0,0h-.008l-.005,0a.01.01,0,0,1,0,0,.008.008,0,0,1,0,0l0,0Zm0,0,0,0,0,0a.012.012,0,0,0,0,0,0,0,0,0,0,0,0h.007l0,0v0a.007.007,0,0,0,0,0h0Zm-.017-.014h0a0,0,0,0,0,0,0h0l0,0h0v0l0,0,0,0-.008.005h0a.006.006,0,0,0,0,0l0,0,0,0H62.27a0,0,0,0,1,0,0v0a.006.006,0,0,1,0,0" transform="translate(-61.298 -176.262)" fill="#fff" fill-rule="evenodd"/>
            </g>
          </g>
        </g>
        <g id="Helm" transform="translate(6.254 5.666)">
          <circle id="Ellipse_19" data-name="Ellipse 19" cx="4.2" cy="4.2" r="4.2" fill="#dcdddd"/>
          <path id="Path_779" data-name="Path 779" d="M45.273,112.9h-.613a.171.171,0,0,0-.171.171v1.513a.207.207,0,0,0,.207.207h.578V112.9Z" transform="translate(-44.488 -108.7)" fill="#e60013" fill-rule="evenodd"/>
          <path id="Path_780" data-name="Path 780" d="M89.7,113.071a.171.171,0,0,0-.171-.171h-.442a.171.171,0,0,0-.171.171v1.513a.207.207,0,0,0,.207.207H89.7v-1.72Z" transform="translate(-81.295 -108.7)" fill="#e60013" fill-rule="evenodd"/>
          <circle id="Ellipse_20" data-name="Ellipse 20" cx="4.2" cy="4.2" r="4.2" transform="translate(0 2.069)" fill="#e60013"/>
          <g id="Group_1021" data-name="Group 1021" transform="translate(0 2.069)" clip-path="url(#clip-path)">
            <g id="Group_1020" data-name="Group 1020" transform="translate(2.743 2.727)">
              <path id="garis-helm" d="M61.173,116.718a.343.343,0,1,0-.686,0v5.93h.686Z" transform="translate(-60.487 -116.375)" fill="#fff" fill-rule="evenodd"/>
              <path id="garis-helm1" d="M67.344,116.8a.429.429,0,1,0-.857,0v5.845h.857Z" transform="translate(-65.458 -116.375)" fill="#fff" fill-rule="evenodd"/>
              <path id="garis-helm2" d="M74.173,116.718a.343.343,0,1,0-.686,0v5.93h.686Z" transform="translate(-71.258 -116.375)" fill="#fff" fill-rule="evenodd"/>
            </g>
          </g>
          <g id="Group_1022" data-name="Group 1022" transform="translate(3.515 2.388)">
            <path id="Path_781" data-name="Path 781" d="M66.474,108.167a.391.391,0,0,1-.134-.566.273.273,0,0,0-.113-.193.394.394,0,0,1-.58-.045.277.277,0,0,0-.218.045.271.271,0,0,0-.043.405.274.274,0,1,0,.169.52c0,.009,0,.019,0,.028a.274.274,0,0,0,.549,0v-.028a.271.271,0,0,0,.372-.166" transform="translate(-65.144 -106.494)" fill="#fff"/>
            <path id="Path_782" data-name="Path 782" d="M66.9,109.138h-.268v-.269H66.9V108.6h.269v.269h.269v.269h-.269v.269H66.9v-.269" transform="translate(-66.352 -107.525)" fill="#e20a16"/>
            <path id="Path_783" data-name="Path 783" d="M66.163,107.661a.5.5,0,1,1-.787.572.679.679,0,1,1,.787-.572Zm.159.368a.391.391,0,0,1-.134-.566.273.273,0,0,0-.113-.193.395.395,0,0,1-.58-.046.277.277,0,0,0-.218.046.271.271,0,0,0-.043.405.274.274,0,1,0,.169.52v.028a.274.274,0,1,0,.549,0V108.2a.272.272,0,0,0,.372-.166" transform="translate(-64.991 -106.357)" fill="#e20a16"/>
            <path id="Path_784" data-name="Path 784" d="M65.176,102.328h-.109v.537h.109Zm.727.537v-.537h-.1v.429l-.1-.429h-.085l-.1.429v-.429h-.1v.537h.16l.078-.379.079.379Zm.51,0v-.537H66.3v.214h-.058a.235.235,0,0,0-.07.01.139.139,0,0,0-.054.029.126.126,0,0,0-.034.05.19.19,0,0,0-.013.072.226.226,0,0,0,.008.059.146.146,0,0,0,.025.051.125.125,0,0,0,.046.036.152.152,0,0,0,.069.014h.19Zm-.109-.243v.164h-.045a.071.071,0,0,1-.058-.021.1.1,0,0,1-.017-.062.082.082,0,0,1,.02-.061.07.07,0,0,1,.051-.02H66.3" transform="translate(-65.054 -102.328)" fill="#fff" fill-rule="evenodd"/>
          </g>
        </g>
      </g>
    </g>
  </g>
</svg>
